<?xml version="1.0" encoding="UTF-8" standalone="no"?>
<!DOCTYPE svg PUBLIC "-//W3C//DTD SVG 1.1//EN"
 "http://www.w3.org/Graphics/SVG/1.1/DTD/svg11.dtd">
<!-- Generated by graphviz version 2.42.4 (0)
 -->
<!-- Title: bpms_system_architecture Pages: 1 -->
<svg width="3648pt" height="430pt"
 viewBox="0.00 0.00 3647.80 429.80" xmlns="http://www.w3.org/2000/svg" xmlns:xlink="http://www.w3.org/1999/xlink">
<g id="graph0" class="graph" transform="scale(1 1) rotate(0) translate(14.4 415.4)">
<title>bpms_system_architecture</title>
<polygon fill="white" stroke="transparent" points="-14.4,14.4 -14.4,-415.4 3633.4,-415.4 3633.4,14.4 -14.4,14.4"/>
<g id="clust1" class="cluster">
<title>cluster_ctrl</title>
<path fill="none" stroke="#9aa9c3" d="M220,-109C220,-109 455,-109 455,-109 461,-109 467,-115 467,-121 467,-121 467,-263.5 467,-263.5 467,-269.5 461,-275.5 455,-275.5 455,-275.5 220,-275.5 220,-275.5 214,-275.5 208,-269.5 208,-263.5 208,-263.5 208,-121 208,-121 208,-115 214,-109 220,-109"/>
<text text-anchor="middle" x="337.5" y="-260.3" font-family="Times,serif" font-size="14.00">Control &amp; Config</text>
</g>
<g id="clust2" class="cluster">
<title>cluster_cpri</title>
<path fill="none" stroke="#9aa9c3" d="M488,-8C488,-8 753,-8 753,-8 759,-8 765,-14 765,-20 765,-20 765,-263.5 765,-263.5 765,-269.5 759,-275.5 753,-275.5 753,-275.5 488,-275.5 488,-275.5 482,-275.5 476,-269.5 476,-263.5 476,-263.5 476,-20 476,-20 476,-14 482,-8 488,-8"/>
<text text-anchor="middle" x="620.5" y="-260.3" font-family="Times,serif" font-size="14.00">CPRI Frontend</text>
</g>
<g id="clust3" class="cluster">
<title>cluster_rf</title>
<path fill="none" stroke="#9aa9c3" d="M786,-109C786,-109 940,-109 940,-109 946,-109 952,-115 952,-121 952,-121 952,-263.5 952,-263.5 952,-269.5 946,-275.5 940,-275.5 940,-275.5 786,-275.5 786,-275.5 780,-275.5 774,-269.5 774,-263.5 774,-263.5 774,-121 774,-121 774,-115 780,-109 786,-109"/>
<text text-anchor="middle" x="863" y="-260.3" font-family="Times,serif" font-size="14.00">RF Frontend</text>
</g>
<g id="clust4" class="cluster">
<title>cluster_mnc</title>
<path fill="none" stroke="#9aa9c3" d="M973,-116C973,-116 1152,-116 1152,-116 1158,-116 1164,-122 1164,-128 1164,-128 1164,-263.5 1164,-263.5 1164,-269.5 1158,-275.5 1152,-275.5 1152,-275.5 973,-275.5 973,-275.5 967,-275.5 961,-269.5 961,-263.5 961,-263.5 961,-128 961,-128 961,-122 967,-116 973,-116"/>
<text text-anchor="middle" x="1062.5" y="-260.3" font-family="Times,serif" font-size="14.00">MNC Channel</text>
</g>
<g id="clust5" class="cluster">
<title>cluster_dl</title>
<path fill="none" stroke="#9aa9c3" d="M1184,-109C1184,-109 2177,-109 2177,-109 2183,-109 2189,-115 2189,-121 2189,-121 2189,-263.5 2189,-263.5 2189,-269.5 2183,-275.5 2177,-275.5 2177,-275.5 1184,-275.5 1184,-275.5 1178,-275.5 1172,-269.5 1172,-263.5 1172,-263.5 1172,-121 1172,-121 1172,-115 1178,-109 1184,-109"/>
<text text-anchor="middle" x="1680.5" y="-260.3" font-family="Times,serif" font-size="14.00">DL DSP Chain</text>
</g>
<g id="clust6" class="cluster">
<title>cluster_ul</title>
<path fill="none" stroke="#9aa9c3" d="M2210,-109C2210,-109 2680,-109 2680,-109 2686,-109 2692,-115 2692,-121 2692,-121 2692,-263.5 2692,-263.5 2692,-269.5 2686,-275.5 2680,-275.5 2680,-275.5 2210,-275.5 2210,-275.5 2204,-275.5 2198,-269.5 2198,-263.5 2198,-263.5 2198,-121 2198,-121 2198,-115 2204,-109 2210,-109"/>
<text text-anchor="middle" x="2445" y="-260.3" font-family="Times,serif" font-size="14.00">UL DSP Chain</text>
</g>
<g id="clust7" class="cluster">
<title>cluster_bc</title>
<path fill="none" stroke="#9aa9c3" d="M2712,-13.5C2712,-13.5 2873,-13.5 2873,-13.5 2879,-13.5 2885,-19.5 2885,-25.5 2885,-25.5 2885,-263.5 2885,-263.5 2885,-269.5 2879,-275.5 2873,-275.5 2873,-275.5 2712,-275.5 2712,-275.5 2706,-275.5 2700,-269.5 2700,-263.5 2700,-263.5 2700,-25.5 2700,-25.5 2700,-19.5 2706,-13.5 2712,-13.5"/>
<text text-anchor="middle" x="2792.5" y="-260.3" font-family="Times,serif" font-size="14.00">Beam Combining / BDC</text>
</g>
<g id="clust8" class="cluster">
<title>cluster_ddr</title>
<path fill="none" stroke="#9aa9c3" d="M2905,-20.5C2905,-20.5 3057,-20.5 3057,-20.5 3063,-20.5 3069,-26.5 3069,-32.5 3069,-32.5 3069,-263.5 3069,-263.5 3069,-269.5 3063,-275.5 3057,-275.5 3057,-275.5 2905,-275.5 2905,-275.5 2899,-275.5 2893,-269.5 2893,-263.5 2893,-263.5 2893,-32.5 2893,-32.5 2893,-26.5 2899,-20.5 2905,-20.5"/>
<text text-anchor="middle" x="2981" y="-260.3" font-family="Times,serif" font-size="14.00">DDR FIFO Pool</text>
</g>
<g id="clust9" class="cluster">
<title>cluster_mon</title>
<path fill="none" stroke="#9aa9c3" d="M3089,-116C3089,-116 3376,-116 3376,-116 3382,-116 3388,-122 3388,-128 3388,-128 3388,-265 3388,-265 3388,-271 3382,-277 3376,-277 3376,-277 3089,-277 3089,-277 3083,-277 3077,-271 3077,-265 3077,-265 3077,-128 3077,-128 3077,-122 3083,-116 3089,-116"/>
<text text-anchor="middle" x="3232.5" y="-261.8" font-family="Times,serif" font-size="14.00">Monitoring</text>
</g>
<g id="clust10" class="cluster">
<title>cluster_cap</title>
<path fill="none" stroke="#9aa9c3" d="M3409,-20.5C3409,-20.5 3599,-20.5 3599,-20.5 3605,-20.5 3611,-26.5 3611,-32.5 3611,-32.5 3611,-263.5 3611,-263.5 3611,-269.5 3605,-275.5 3599,-275.5 3599,-275.5 3409,-275.5 3409,-275.5 3403,-275.5 3397,-269.5 3397,-263.5 3397,-263.5 3397,-32.5 3397,-32.5 3397,-26.5 3403,-20.5 3409,-20.5"/>
<text text-anchor="middle" x="3504" y="-260.3" font-family="Times,serif" font-size="14.00">Capture / Debug</text>
</g>
<!-- TOP -->
<g id="node1" class="node">
<title>TOP</title>
<path fill="#eef4ff" stroke="#555555" d="M1045,-401C1045,-401 955,-401 955,-401 949,-401 943,-395 943,-389 943,-389 943,-377 943,-377 943,-371 949,-365 955,-365 955,-365 1045,-365 1045,-365 1051,-365 1057,-371 1057,-377 1057,-377 1057,-389 1057,-389 1057,-395 1051,-401 1045,-401"/>
<text text-anchor="start" x="949" y="-386" font-family="Helvetica,sans-Serif" font-weight="bold" font-size="10.00">bpms_system_top</text>
<text text-anchor="start" x="960.5" y="-376" font-family="Helvetica,sans-Serif" font-size="10.00">(board I/O shell)</text>
</g>
<!-- IO -->
<g id="node2" class="node">
<title>IO</title>
<path fill="#f8f8f8" stroke="#555555" d="M912,-325C912,-325 722,-325 722,-325 716,-325 710,-319 710,-313 710,-313 710,-298 710,-298 710,-292 716,-286 722,-286 722,-286 912,-286 912,-286 918,-286 924,-292 924,-298 924,-298 924,-313 924,-313 924,-319 918,-325 912,-325"/>
<text text-anchor="start" x="765.5" y="-314" font-family="Helvetica,sans-Serif" font-size="10.00">[Board IO Primitives]</text>
<text text-anchor="start" x="716" y="-303" font-family="Helvetica,sans-Serif" font-size="10.00">IBUFGDS · IBUFDS_GTE4 · OBUFDS_GTE4</text>
<text text-anchor="start" x="729.5" y="-292" font-family="Helvetica,sans-Serif" font-size="10.00">BUFGCTRL · OBUFDS · fpga_version</text>
</g>
<!-- TOP&#45;&gt;IO -->
<g id="edge1" class="edge">
<title>TOP&#45;&gt;IO</title>
<path fill="none" stroke="#666666" d="M942.85,-383C889.16,-383 817,-383 817,-383 817,-383 817,-332.06 817,-332.06"/>
<polygon fill="#666666" stroke="#666666" points="819.45,-332.06 817,-325.06 814.55,-332.06 819.45,-332.06"/>
</g>
<!-- BD1W -->
<g id="node3" class="node">
<title>BD1W</title>
<path fill="#f8f8f8" stroke="#555555" d="M1038.5,-323.5C1038.5,-323.5 961.5,-323.5 961.5,-323.5 955.5,-323.5 949.5,-317.5 949.5,-311.5 949.5,-311.5 949.5,-299.5 949.5,-299.5 949.5,-293.5 955.5,-287.5 961.5,-287.5 961.5,-287.5 1038.5,-287.5 1038.5,-287.5 1044.5,-287.5 1050.5,-293.5 1050.5,-299.5 1050.5,-299.5 1050.5,-311.5 1050.5,-311.5 1050.5,-317.5 1044.5,-323.5 1038.5,-323.5"/>
<text text-anchor="middle" x="1000" y="-303" font-family="Helvetica,sans-Serif" font-size="10.00">design_1_wrapper</text>
</g>
<!-- TOP&#45;&gt;BD1W -->
<g id="edge2" class="edge">
<title>TOP&#45;&gt;BD1W</title>
<path fill="none" stroke="#666666" d="M1000,-364.63C1000,-364.63 1000,-330.73 1000,-330.73"/>
<polygon fill="#666666" stroke="#666666" points="1002.45,-330.73 1000,-323.73 997.55,-330.73 1002.45,-330.73"/>
</g>
<!-- SIMTOP -->
<g id="node5" class="node">
<title>SIMTOP</title>
<path fill="#eef4ff" stroke="#555555" d="M2042.5,-323.5C2042.5,-323.5 1927.5,-323.5 1927.5,-323.5 1921.5,-323.5 1915.5,-317.5 1915.5,-311.5 1915.5,-311.5 1915.5,-299.5 1915.5,-299.5 1915.5,-293.5 1921.5,-287.5 1927.5,-287.5 1927.5,-287.5 2042.5,-287.5 2042.5,-287.5 2048.5,-287.5 2054.5,-293.5 2054.5,-299.5 2054.5,-299.5 2054.5,-311.5 2054.5,-311.5 2054.5,-317.5 2048.5,-323.5 2042.5,-323.5"/>
<text text-anchor="start" x="1921.5" y="-308.5" font-family="Helvetica,sans-Serif" font-weight="bold" font-size="10.00">bpms_system_sim_top</text>
<text text-anchor="start" x="1953" y="-298.5" font-family="Helvetica,sans-Serif" font-size="10.00">(PL logic top)</text>
</g>
<!-- TOP&#45;&gt;SIMTOP -->
<g id="edge3" class="edge">
<title>TOP&#45;&gt;SIMTOP</title>
<path fill="none" stroke="#666666" d="M1057.22,-383C1267.44,-383 1985,-383 1985,-383 1985,-383 1985,-330.87 1985,-330.87"/>
<polygon fill="#666666" stroke="#666666" points="1987.45,-330.87 1985,-323.87 1982.55,-330.87 1987.45,-330.87"/>
</g>
<!-- BD1 -->
<g id="node4" class="node">
<title>BD1</title>
<path fill="#f8f8f8" stroke="#555555" d="M188,-244.5C188,-244.5 12,-244.5 12,-244.5 6,-244.5 0,-238.5 0,-232.5 0,-232.5 0,-220.5 0,-220.5 0,-214.5 6,-208.5 12,-208.5 12,-208.5 188,-208.5 188,-208.5 194,-208.5 200,-214.5 200,-220.5 200,-220.5 200,-232.5 200,-232.5 200,-238.5 194,-244.5 188,-244.5"/>
<text text-anchor="start" x="78" y="-234.5" font-family="Helvetica,sans-Serif" font-style="italic" font-size="10.00">design_1</text>
<text text-anchor="start" x="6" y="-224.5" font-family="Helvetica,sans-Serif" font-size="10.00">[Zynq PS · RFDC · AXI Xbar · DDR MIG]</text>
<text text-anchor="start" x="47" y="-214.5" font-family="Helvetica,sans-Serif" font-size="10.00">(Vivado block design)</text>
</g>
<!-- BD1W&#45;&gt;BD1 -->
<g id="edge4" class="edge">
<title>BD1W&#45;&gt;BD1</title>
<path fill="none" stroke="#666666" d="M959,-287.31C959,-282.2 959,-278 959,-278 959,-278 100,-278 100,-278 100,-278 100,-251.51 100,-251.51"/>
<polygon fill="#666666" stroke="#666666" points="102.45,-251.51 100,-244.51 97.55,-251.51 102.45,-251.51"/>
</g>
<!-- RAL -->
<g id="node6" class="node">
<title>RAL</title>
<path fill="white" stroke="#555555" d="M430.5,-244.5C430.5,-244.5 373.5,-244.5 373.5,-244.5 367.5,-244.5 361.5,-238.5 361.5,-232.5 361.5,-232.5 361.5,-220.5 361.5,-220.5 361.5,-214.5 367.5,-208.5 373.5,-208.5 373.5,-208.5 430.5,-208.5 430.5,-208.5 436.5,-208.5 442.5,-214.5 442.5,-220.5 442.5,-220.5 442.5,-232.5 442.5,-232.5 442.5,-238.5 436.5,-244.5 430.5,-244.5"/>
<text text-anchor="middle" x="402" y="-224" font-family="Helvetica,sans-Serif" font-size="10.00">ral_config_top</text>
</g>
<!-- SIMTOP&#45;&gt;RAL -->
<g id="edge25" class="edge">
<title>SIMTOP&#45;&gt;RAL</title>
<path fill="none" stroke="#666666" d="M1926.9,-287.33C1926.9,-278.6 1926.9,-270 1926.9,-270 1926.9,-270 402,-270 402,-270 402,-270 402,-251.7 402,-251.7"/>
<polygon fill="#666666" stroke="#666666" points="404.45,-251.7 402,-244.7 399.55,-251.7 404.45,-251.7"/>
</g>
<!-- CPRI_T -->
<g id="node9" class="node">
<title>CPRI_T</title>
<path fill="white" stroke="#555555" d="M728,-244.5C728,-244.5 662,-244.5 662,-244.5 656,-244.5 650,-238.5 650,-232.5 650,-232.5 650,-220.5 650,-220.5 650,-214.5 656,-208.5 662,-208.5 662,-208.5 728,-208.5 728,-208.5 734,-208.5 740,-214.5 740,-220.5 740,-220.5 740,-232.5 740,-232.5 740,-238.5 734,-244.5 728,-244.5"/>
<text text-anchor="middle" x="695" y="-224" font-family="Helvetica,sans-Serif" font-size="10.00">bbu_cpri_fe_top</text>
</g>
<!-- SIMTOP&#45;&gt;CPRI_T -->
<g id="edge26" class="edge">
<title>SIMTOP&#45;&gt;CPRI_T</title>
<path fill="none" stroke="#666666" d="M1938.3,-287.3C1938.3,-275.38 1938.3,-262 1938.3,-262 1938.3,-262 725,-262 725,-262 725,-262 725,-251.67 725,-251.67"/>
<polygon fill="#666666" stroke="#666666" points="727.45,-251.67 725,-244.67 722.55,-251.67 727.45,-251.67"/>
</g>
<!-- BBU_RF -->
<g id="node13" class="node">
<title>BBU_RF</title>
<path fill="white" stroke="#555555" d="M911.5,-244.5C911.5,-244.5 856.5,-244.5 856.5,-244.5 850.5,-244.5 844.5,-238.5 844.5,-232.5 844.5,-232.5 844.5,-220.5 844.5,-220.5 844.5,-214.5 850.5,-208.5 856.5,-208.5 856.5,-208.5 911.5,-208.5 911.5,-208.5 917.5,-208.5 923.5,-214.5 923.5,-220.5 923.5,-220.5 923.5,-232.5 923.5,-232.5 923.5,-238.5 917.5,-244.5 911.5,-244.5"/>
<text text-anchor="middle" x="884" y="-224" font-family="Helvetica,sans-Serif" font-size="10.00">bbu_rf_fe_top</text>
</g>
<!-- SIMTOP&#45;&gt;BBU_RF -->
<g id="edge27" class="edge">
<title>SIMTOP&#45;&gt;BBU_RF</title>
<path fill="none" stroke="#666666" d="M1949.7,-287.49C1949.7,-272.64 1949.7,-254 1949.7,-254 1949.7,-254 884,-254 884,-254 884,-254 884,-251.69 884,-251.69"/>
<polygon fill="#666666" stroke="#666666" points="886.45,-251.69 884,-244.69 881.55,-251.69 886.45,-251.69"/>
</g>
<!-- MNC -->
<g id="node15" class="node">
<title>MNC</title>
<path fill="white" stroke="#555555" d="M1142,-244.5C1142,-244.5 1068,-244.5 1068,-244.5 1062,-244.5 1056,-238.5 1056,-232.5 1056,-232.5 1056,-220.5 1056,-220.5 1056,-214.5 1062,-208.5 1068,-208.5 1068,-208.5 1142,-208.5 1142,-208.5 1148,-208.5 1154,-214.5 1154,-220.5 1154,-220.5 1154,-232.5 1154,-232.5 1154,-238.5 1148,-244.5 1142,-244.5"/>
<text text-anchor="middle" x="1105" y="-224" font-family="Helvetica,sans-Serif" font-size="10.00">mnc_channel_top</text>
</g>
<!-- SIMTOP&#45;&gt;MNC -->
<g id="edge28" class="edge">
<title>SIMTOP&#45;&gt;MNC</title>
<path fill="none" stroke="#666666" d="M1915.25,-318C1707.23,-318 1105.5,-318 1105.5,-318 1105.5,-318 1105.5,-251.58 1105.5,-251.58"/>
<polygon fill="#666666" stroke="#666666" points="1107.95,-251.58 1105.5,-244.58 1103.05,-251.58 1107.95,-251.58"/>
</g>
<!-- MBB -->
<g id="node18" class="node">
<title>MBB</title>
<path fill="white" stroke="#555555" d="M2168.5,-244.5C2168.5,-244.5 2127.5,-244.5 2127.5,-244.5 2121.5,-244.5 2115.5,-238.5 2115.5,-232.5 2115.5,-232.5 2115.5,-220.5 2115.5,-220.5 2115.5,-214.5 2121.5,-208.5 2127.5,-208.5 2127.5,-208.5 2168.5,-208.5 2168.5,-208.5 2174.5,-208.5 2180.5,-214.5 2180.5,-220.5 2180.5,-220.5 2180.5,-232.5 2180.5,-232.5 2180.5,-238.5 2174.5,-244.5 2168.5,-244.5"/>
<text text-anchor="start" x="2121.5" y="-229.5" font-family="Helvetica,sans-Serif" font-size="10.00">mbb_cprirf</text>
<text text-anchor="start" x="2132.5" y="-218.5" font-family="Helvetica,sans-Serif" font-size="10.00">(MBB)</text>
</g>
<!-- SIMTOP&#45;&gt;MBB -->
<g id="edge29" class="edge">
<title>SIMTOP&#45;&gt;MBB</title>
<path fill="none" stroke="#666666" d="M2054.6,-290C2098.9,-290 2148,-290 2148,-290 2148,-290 2148,-251.53 2148,-251.53"/>
<polygon fill="#666666" stroke="#666666" points="2150.45,-251.53 2148,-244.53 2145.55,-251.53 2150.45,-251.53"/>
</g>
<!-- DL_CW -->
<g id="node19" class="node">
<title>DL_CW</title>
<path fill="white" stroke="#555555" d="M2078,-244.5C2078,-244.5 2010,-244.5 2010,-244.5 2004,-244.5 1998,-238.5 1998,-232.5 1998,-232.5 1998,-220.5 1998,-220.5 1998,-214.5 2004,-208.5 2010,-208.5 2010,-208.5 2078,-208.5 2078,-208.5 2084,-208.5 2090,-214.5 2090,-220.5 2090,-220.5 2090,-232.5 2090,-232.5 2090,-238.5 2084,-244.5 2078,-244.5"/>
<text text-anchor="start" x="2009" y="-229.5" font-family="Helvetica,sans-Serif" font-size="10.00">dl_cpricw_add</text>
<text text-anchor="start" x="2004" y="-218.5" font-family="Helvetica,sans-Serif" font-size="10.00">(CPRI CW inject)</text>
</g>
<!-- SIMTOP&#45;&gt;DL_CW -->
<g id="edge30" class="edge">
<title>SIMTOP&#45;&gt;DL_CW</title>
<path fill="none" stroke="#666666" d="M2026.25,-287.18C2026.25,-287.18 2026.25,-251.72 2026.25,-251.72"/>
<polygon fill="#666666" stroke="#666666" points="2028.7,-251.72 2026.25,-244.72 2023.8,-251.72 2028.7,-251.72"/>
</g>
<!-- DL_MNCW -->
<g id="node20" class="node">
<title>DL_MNCW</title>
<path fill="white" stroke="#555555" d="M1960.5,-244.5C1960.5,-244.5 1891.5,-244.5 1891.5,-244.5 1885.5,-244.5 1879.5,-238.5 1879.5,-232.5 1879.5,-232.5 1879.5,-220.5 1879.5,-220.5 1879.5,-214.5 1885.5,-208.5 1891.5,-208.5 1891.5,-208.5 1960.5,-208.5 1960.5,-208.5 1966.5,-208.5 1972.5,-214.5 1972.5,-220.5 1972.5,-220.5 1972.5,-232.5 1972.5,-232.5 1972.5,-238.5 1966.5,-244.5 1960.5,-244.5"/>
<text text-anchor="start" x="1889.5" y="-229.5" font-family="Helvetica,sans-Serif" font-size="10.00">dl_mnccw_add</text>
<text text-anchor="start" x="1885.5" y="-218.5" font-family="Helvetica,sans-Serif" font-size="10.00">(MNC CW inject)</text>
</g>
<!-- SIMTOP&#45;&gt;DL_MNCW -->
<g id="edge31" class="edge">
<title>SIMTOP&#45;&gt;DL_MNCW</title>
<path fill="none" stroke="#666666" d="M1961.1,-287.18C1961.1,-287.18 1961.1,-251.72 1961.1,-251.72"/>
<polygon fill="#666666" stroke="#666666" points="1963.55,-251.72 1961.1,-244.72 1958.65,-251.72 1963.55,-251.72"/>
</g>
<!-- SRC_DL -->
<g id="node21" class="node">
<title>SRC_DL</title>
<path fill="white" stroke="#555555" d="M1842,-244.5C1842,-244.5 1776,-244.5 1776,-244.5 1770,-244.5 1764,-238.5 1764,-232.5 1764,-232.5 1764,-220.5 1764,-220.5 1764,-214.5 1770,-208.5 1776,-208.5 1776,-208.5 1842,-208.5 1842,-208.5 1848,-208.5 1854,-214.5 1854,-220.5 1854,-220.5 1854,-232.5 1854,-232.5 1854,-238.5 1848,-244.5 1842,-244.5"/>
<text text-anchor="start" x="1784" y="-229.5" font-family="Helvetica,sans-Serif" font-size="10.00">src_dl_top</text>
<text text-anchor="start" x="1770" y="-218.5" font-family="Helvetica,sans-Serif" font-size="10.00">(DL SRC — HLS)</text>
</g>
<!-- SIMTOP&#45;&gt;SRC_DL -->
<g id="edge32" class="edge">
<title>SIMTOP&#45;&gt;SRC_DL</title>
<path fill="none" stroke="#666666" d="M1915.44,-292C1866.25,-292 1809,-292 1809,-292 1809,-292 1809,-251.75 1809,-251.75"/>
<polygon fill="#666666" stroke="#666666" points="1811.45,-251.75 1809,-244.75 1806.55,-251.75 1811.45,-251.75"/>
</g>
<!-- DL_DCGC -->
<g id="node22" class="node">
<title>DL_DCGC</title>
<path fill="white" stroke="#555555" d="M1726.5,-244.5C1726.5,-244.5 1659.5,-244.5 1659.5,-244.5 1653.5,-244.5 1647.5,-238.5 1647.5,-232.5 1647.5,-232.5 1647.5,-220.5 1647.5,-220.5 1647.5,-214.5 1653.5,-208.5 1659.5,-208.5 1659.5,-208.5 1726.5,-208.5 1726.5,-208.5 1732.5,-208.5 1738.5,-214.5 1738.5,-220.5 1738.5,-220.5 1738.5,-232.5 1738.5,-232.5 1738.5,-238.5 1732.5,-244.5 1726.5,-244.5"/>
<text text-anchor="middle" x="1693" y="-224" font-family="Helvetica,sans-Serif" font-size="10.00">DL_DC_GC_MAP</text>
</g>
<!-- SIMTOP&#45;&gt;DL_DCGC -->
<g id="edge33" class="edge">
<title>SIMTOP&#45;&gt;DL_DCGC</title>
<path fill="none" stroke="#666666" d="M1915.43,-297C1829.06,-297 1693,-297 1693,-297 1693,-297 1693,-251.66 1693,-251.66"/>
<polygon fill="#666666" stroke="#666666" points="1695.45,-251.66 1693,-244.66 1690.55,-251.66 1695.45,-251.66"/>
</g>
<!-- NCO -->
<g id="node24" class="node">
<title>NCO</title>
<path fill="white" stroke="#555555" d="M1610.5,-244.5C1610.5,-244.5 1463.5,-244.5 1463.5,-244.5 1457.5,-244.5 1451.5,-238.5 1451.5,-232.5 1451.5,-232.5 1451.5,-220.5 1451.5,-220.5 1451.5,-214.5 1457.5,-208.5 1463.5,-208.5 1463.5,-208.5 1610.5,-208.5 1610.5,-208.5 1616.5,-208.5 1622.5,-214.5 1622.5,-220.5 1622.5,-220.5 1622.5,-232.5 1622.5,-232.5 1622.5,-238.5 1616.5,-244.5 1610.5,-244.5"/>
<text text-anchor="middle" x="1537" y="-224" font-family="Helvetica,sans-Serif" font-size="10.00">beam_nco_frequency_correction</text>
</g>
<!-- SIMTOP&#45;&gt;NCO -->
<g id="edge34" class="edge">
<title>SIMTOP&#45;&gt;NCO</title>
<path fill="none" stroke="#666666" d="M1915.49,-302C1789.66,-302 1537,-302 1537,-302 1537,-302 1537,-251.78 1537,-251.78"/>
<polygon fill="#666666" stroke="#666666" points="1539.45,-251.78 1537,-244.78 1534.55,-251.78 1539.45,-251.78"/>
</g>
<!-- PBDC_DL -->
<g id="node26" class="node">
<title>PBDC_DL</title>
<path fill="white" stroke="#555555" d="M1414.5,-244.5C1414.5,-244.5 1327.5,-244.5 1327.5,-244.5 1321.5,-244.5 1315.5,-238.5 1315.5,-232.5 1315.5,-232.5 1315.5,-220.5 1315.5,-220.5 1315.5,-214.5 1321.5,-208.5 1327.5,-208.5 1327.5,-208.5 1414.5,-208.5 1414.5,-208.5 1420.5,-208.5 1426.5,-214.5 1426.5,-220.5 1426.5,-220.5 1426.5,-232.5 1426.5,-232.5 1426.5,-238.5 1420.5,-244.5 1414.5,-244.5"/>
<text text-anchor="middle" x="1371" y="-224" font-family="Helvetica,sans-Serif" font-size="10.00">dl_aggregated_pbdc</text>
</g>
<!-- SIMTOP&#45;&gt;PBDC_DL -->
<g id="edge35" class="edge">
<title>SIMTOP&#45;&gt;PBDC_DL</title>
<path fill="none" stroke="#666666" d="M1915.46,-308C1754.71,-308 1371,-308 1371,-308 1371,-308 1371,-251.59 1371,-251.59"/>
<polygon fill="#666666" stroke="#666666" points="1373.45,-251.59 1371,-244.59 1368.55,-251.59 1373.45,-251.59"/>
</g>
<!-- PBGC_DL -->
<g id="node27" class="node">
<title>PBGC_DL</title>
<path fill="white" stroke="#555555" d="M1278.5,-244.5C1278.5,-244.5 1191.5,-244.5 1191.5,-244.5 1185.5,-244.5 1179.5,-238.5 1179.5,-232.5 1179.5,-232.5 1179.5,-220.5 1179.5,-220.5 1179.5,-214.5 1185.5,-208.5 1191.5,-208.5 1191.5,-208.5 1278.5,-208.5 1278.5,-208.5 1284.5,-208.5 1290.5,-214.5 1290.5,-220.5 1290.5,-220.5 1290.5,-232.5 1290.5,-232.5 1290.5,-238.5 1284.5,-244.5 1278.5,-244.5"/>
<text text-anchor="middle" x="1235" y="-224" font-family="Helvetica,sans-Serif" font-size="10.00">dl_aggregated_pbgc</text>
</g>
<!-- SIMTOP&#45;&gt;PBGC_DL -->
<g id="edge36" class="edge">
<title>SIMTOP&#45;&gt;PBGC_DL</title>
<path fill="none" stroke="#666666" d="M1915.45,-313C1729.52,-313 1235,-313 1235,-313 1235,-313 1235,-251.84 1235,-251.84"/>
<polygon fill="#666666" stroke="#666666" points="1237.45,-251.84 1235,-244.84 1232.55,-251.84 1237.45,-251.84"/>
</g>
<!-- SRC_UL -->
<g id="node28" class="node">
<title>SRC_UL</title>
<path fill="white" stroke="#555555" d="M2672,-244.5C2672,-244.5 2606,-244.5 2606,-244.5 2600,-244.5 2594,-238.5 2594,-232.5 2594,-232.5 2594,-220.5 2594,-220.5 2594,-214.5 2600,-208.5 2606,-208.5 2606,-208.5 2672,-208.5 2672,-208.5 2678,-208.5 2684,-214.5 2684,-220.5 2684,-220.5 2684,-232.5 2684,-232.5 2684,-238.5 2678,-244.5 2672,-244.5"/>
<text text-anchor="start" x="2614" y="-229.5" font-family="Helvetica,sans-Serif" font-size="10.00">src_ul_top</text>
<text text-anchor="start" x="2600" y="-218.5" font-family="Helvetica,sans-Serif" font-size="10.00">(UL SRC — HLS)</text>
</g>
<!-- SIMTOP&#45;&gt;SRC_UL -->
<g id="edge37" class="edge">
<title>SIMTOP&#45;&gt;SRC_UL</title>
<path fill="none" stroke="#666666" d="M2054.68,-303C2223.19,-303 2639,-303 2639,-303 2639,-303 2639,-251.63 2639,-251.63"/>
<polygon fill="#666666" stroke="#666666" points="2641.45,-251.63 2639,-244.63 2636.55,-251.63 2641.45,-251.63"/>
</g>
<!-- UL_DCGC -->
<g id="node29" class="node">
<title>UL_DCGC</title>
<path fill="white" stroke="#555555" d="M2556.5,-244.5C2556.5,-244.5 2489.5,-244.5 2489.5,-244.5 2483.5,-244.5 2477.5,-238.5 2477.5,-232.5 2477.5,-232.5 2477.5,-220.5 2477.5,-220.5 2477.5,-214.5 2483.5,-208.5 2489.5,-208.5 2489.5,-208.5 2556.5,-208.5 2556.5,-208.5 2562.5,-208.5 2568.5,-214.5 2568.5,-220.5 2568.5,-220.5 2568.5,-232.5 2568.5,-232.5 2568.5,-238.5 2562.5,-244.5 2556.5,-244.5"/>
<text text-anchor="middle" x="2523" y="-224" font-family="Helvetica,sans-Serif" font-size="10.00">UL_DC_GC_MAP</text>
</g>
<!-- SIMTOP&#45;&gt;UL_DCGC -->
<g id="edge38" class="edge">
<title>SIMTOP&#45;&gt;UL_DCGC</title>
<path fill="none" stroke="#666666" d="M2054.51,-300C2199.95,-300 2523,-300 2523,-300 2523,-300 2523,-251.67 2523,-251.67"/>
<polygon fill="#666666" stroke="#666666" points="2525.45,-251.67 2523,-244.67 2520.55,-251.67 2525.45,-251.67"/>
</g>
<!-- PBDC_UL -->
<g id="node31" class="node">
<title>PBDC_UL</title>
<path fill="white" stroke="#555555" d="M2440.5,-244.5C2440.5,-244.5 2353.5,-244.5 2353.5,-244.5 2347.5,-244.5 2341.5,-238.5 2341.5,-232.5 2341.5,-232.5 2341.5,-220.5 2341.5,-220.5 2341.5,-214.5 2347.5,-208.5 2353.5,-208.5 2353.5,-208.5 2440.5,-208.5 2440.5,-208.5 2446.5,-208.5 2452.5,-214.5 2452.5,-220.5 2452.5,-220.5 2452.5,-232.5 2452.5,-232.5 2452.5,-238.5 2446.5,-244.5 2440.5,-244.5"/>
<text text-anchor="middle" x="2397" y="-224" font-family="Helvetica,sans-Serif" font-size="10.00">ul_aggregated_pbdc</text>
</g>
<!-- SIMTOP&#45;&gt;PBDC_UL -->
<g id="edge39" class="edge">
<title>SIMTOP&#45;&gt;PBDC_UL</title>
<path fill="none" stroke="#666666" d="M2054.89,-297C2172.44,-297 2397,-297 2397,-297 2397,-297 2397,-251.66 2397,-251.66"/>
<polygon fill="#666666" stroke="#666666" points="2399.45,-251.66 2397,-244.66 2394.55,-251.66 2399.45,-251.66"/>
</g>
<!-- PBGC_UL -->
<g id="node32" class="node">
<title>PBGC_UL</title>
<path fill="white" stroke="#555555" d="M2304.5,-244.5C2304.5,-244.5 2217.5,-244.5 2217.5,-244.5 2211.5,-244.5 2205.5,-238.5 2205.5,-232.5 2205.5,-232.5 2205.5,-220.5 2205.5,-220.5 2205.5,-214.5 2211.5,-208.5 2217.5,-208.5 2217.5,-208.5 2304.5,-208.5 2304.5,-208.5 2310.5,-208.5 2316.5,-214.5 2316.5,-220.5 2316.5,-220.5 2316.5,-232.5 2316.5,-232.5 2316.5,-238.5 2310.5,-244.5 2304.5,-244.5"/>
<text text-anchor="middle" x="2261" y="-224" font-family="Helvetica,sans-Serif" font-size="10.00">ul_aggregated_pbgc</text>
</g>
<!-- SIMTOP&#45;&gt;PBGC_UL -->
<g id="edge40" class="edge">
<title>SIMTOP&#45;&gt;PBGC_UL</title>
<path fill="none" stroke="#666666" d="M2054.65,-294C2136.41,-294 2261,-294 2261,-294 2261,-294 2261,-251.59 2261,-251.59"/>
<polygon fill="#666666" stroke="#666666" points="2263.45,-251.59 2261,-244.59 2258.55,-251.59 2263.45,-251.59"/>
</g>
<!-- BC_BDC -->
<g id="node33" class="node">
<title>BC_BDC</title>
<path fill="white" stroke="#555555" d="M2770.5,-244.5C2770.5,-244.5 2727.5,-244.5 2727.5,-244.5 2721.5,-244.5 2715.5,-238.5 2715.5,-232.5 2715.5,-232.5 2715.5,-220.5 2715.5,-220.5 2715.5,-214.5 2721.5,-208.5 2727.5,-208.5 2727.5,-208.5 2770.5,-208.5 2770.5,-208.5 2776.5,-208.5 2782.5,-214.5 2782.5,-220.5 2782.5,-220.5 2782.5,-232.5 2782.5,-232.5 2782.5,-238.5 2776.5,-244.5 2770.5,-244.5"/>
<text text-anchor="middle" x="2749" y="-224" font-family="Helvetica,sans-Serif" font-size="10.00">bc_bdc_top</text>
</g>
<!-- SIMTOP&#45;&gt;BC_BDC -->
<g id="edge41" class="edge">
<title>SIMTOP&#45;&gt;BC_BDC</title>
<path fill="none" stroke="#666666" d="M2054.83,-307C2243.43,-307 2749,-307 2749,-307 2749,-307 2749,-251.77 2749,-251.77"/>
<polygon fill="#666666" stroke="#666666" points="2751.45,-251.77 2749,-244.77 2746.55,-251.77 2751.45,-251.77"/>
</g>
<!-- DDR_P -->
<g id="node36" class="node">
<title>DDR_P</title>
<path fill="white" stroke="#555555" d="M3013,-244.5C3013,-244.5 2925,-244.5 2925,-244.5 2919,-244.5 2913,-238.5 2913,-232.5 2913,-232.5 2913,-220.5 2913,-220.5 2913,-214.5 2919,-208.5 2925,-208.5 2925,-208.5 3013,-208.5 3013,-208.5 3019,-208.5 3025,-214.5 3025,-220.5 3025,-220.5 3025,-232.5 3025,-232.5 3025,-238.5 3019,-244.5 3013,-244.5"/>
<text text-anchor="middle" x="2969" y="-224" font-family="Helvetica,sans-Serif" font-size="10.00">AST_DDR_FIFO_Pool</text>
</g>
<!-- SIMTOP&#45;&gt;DDR_P -->
<g id="edge42" class="edge">
<title>SIMTOP&#45;&gt;DDR_P</title>
<path fill="none" stroke="#666666" d="M2054.59,-310C2278.98,-310 2969,-310 2969,-310 2969,-310 2969,-251.62 2969,-251.62"/>
<polygon fill="#666666" stroke="#666666" points="2971.45,-251.62 2969,-244.62 2966.55,-251.62 2971.45,-251.62"/>
</g>
<!-- SRC_MON -->
<g id="node39" class="node">
<title>SRC_MON</title>
<path fill="white" stroke="#555555" d="M3368,-244.5C3368,-244.5 3292,-244.5 3292,-244.5 3286,-244.5 3280,-238.5 3280,-232.5 3280,-232.5 3280,-220.5 3280,-220.5 3280,-214.5 3286,-208.5 3292,-208.5 3292,-208.5 3368,-208.5 3368,-208.5 3374,-208.5 3380,-214.5 3380,-220.5 3380,-220.5 3380,-232.5 3380,-232.5 3380,-238.5 3374,-244.5 3368,-244.5"/>
<text text-anchor="middle" x="3330" y="-224" font-family="Helvetica,sans-Serif" font-size="10.00">src_rate_monitors</text>
</g>
<!-- SIMTOP&#45;&gt;SRC_MON -->
<g id="edge43" class="edge">
<title>SIMTOP&#45;&gt;SRC_MON</title>
<path fill="none" stroke="#666666" d="M2054.95,-316C2331.03,-316 3330,-316 3330,-316 3330,-316 3330,-251.61 3330,-251.61"/>
<polygon fill="#666666" stroke="#666666" points="3332.45,-251.61 3330,-244.61 3327.55,-251.61 3332.45,-251.61"/>
</g>
<!-- RMS -->
<g id="node41" class="node">
<title>RMS</title>
<path fill="white" stroke="#555555" d="M3243,-246C3243,-246 3097,-246 3097,-246 3091,-246 3085,-240 3085,-234 3085,-234 3085,-219 3085,-219 3085,-213 3091,-207 3097,-207 3097,-207 3243,-207 3243,-207 3249,-207 3255,-213 3255,-219 3255,-219 3255,-234 3255,-234 3255,-240 3249,-246 3243,-246"/>
<text text-anchor="start" x="3118.5" y="-235" font-family="Helvetica,sans-Serif" font-size="10.00">power_estimator × 4</text>
<text text-anchor="start" x="3118.5" y="-224" font-family="Helvetica,sans-Serif" font-size="10.00">axi_stream_mux × 5</text>
<text text-anchor="start" x="3091" y="-213" font-family="Helvetica,sans-Serif" font-size="10.00">(RMS probes + digital loopback)</text>
</g>
<!-- SIMTOP&#45;&gt;RMS -->
<g id="edge44" class="edge">
<title>SIMTOP&#45;&gt;RMS</title>
<path fill="none" stroke="#666666" d="M2054.7,-313C2308.71,-313 3170,-313 3170,-313 3170,-313 3170,-253.13 3170,-253.13"/>
<polygon fill="#666666" stroke="#666666" points="3172.45,-253.13 3170,-246.13 3167.55,-253.13 3172.45,-253.13"/>
</g>
<!-- CAP -->
<g id="node42" class="node">
<title>CAP</title>
<path fill="white" stroke="#555555" d="M3496.5,-244.5C3496.5,-244.5 3417.5,-244.5 3417.5,-244.5 3411.5,-244.5 3405.5,-238.5 3405.5,-232.5 3405.5,-232.5 3405.5,-220.5 3405.5,-220.5 3405.5,-214.5 3411.5,-208.5 3417.5,-208.5 3417.5,-208.5 3496.5,-208.5 3496.5,-208.5 3502.5,-208.5 3508.5,-214.5 3508.5,-220.5 3508.5,-220.5 3508.5,-232.5 3508.5,-232.5 3508.5,-238.5 3502.5,-244.5 3496.5,-244.5"/>
<text text-anchor="middle" x="3457" y="-224" font-family="Helvetica,sans-Serif" font-size="10.00">bpms_capture_top</text>
</g>
<!-- SIMTOP&#45;&gt;CAP -->
<g id="edge45" class="edge">
<title>SIMTOP&#45;&gt;CAP</title>
<path fill="none" stroke="#666666" d="M2054.51,-320C2346.29,-320 3457,-320 3457,-320 3457,-320 3457,-251.53 3457,-251.53"/>
<polygon fill="#666666" stroke="#666666" points="3459.45,-251.53 3457,-244.53 3454.55,-251.53 3459.45,-251.53"/>
</g>
<!-- PPS -->
<g id="node7" class="node">
<title>PPS</title>
<path fill="white" stroke="#555555" d="M307.5,-167C307.5,-167 228.5,-167 228.5,-167 222.5,-167 216.5,-161 216.5,-155 216.5,-155 216.5,-129 216.5,-129 216.5,-123 222.5,-117 228.5,-117 228.5,-117 307.5,-117 307.5,-117 313.5,-117 319.5,-123 319.5,-129 319.5,-129 319.5,-155 319.5,-155 319.5,-161 313.5,-167 307.5,-167"/>
<text text-anchor="start" x="222.5" y="-156" font-family="Helvetica,sans-Serif" font-size="10.00">pps_generator_top</text>
<text text-anchor="start" x="224" y="-145" font-family="Helvetica,sans-Serif" font-size="10.00">pps_generator_int</text>
<text text-anchor="start" x="222.5" y="-134" font-family="Helvetica,sans-Serif" font-size="10.00">pps_generator_ext</text>
<text text-anchor="start" x="247.5" y="-123" font-family="Helvetica,sans-Serif" font-size="10.00">sync_bit</text>
</g>
<!-- RAL&#45;&gt;PPS -->
<g id="edge5" class="edge">
<title>RAL&#45;&gt;PPS</title>
<path fill="none" stroke="#666666" d="M361.43,-226C321.99,-226 268,-226 268,-226 268,-226 268,-174.2 268,-174.2"/>
<polygon fill="#666666" stroke="#666666" points="270.45,-174.2 268,-167.2 265.55,-174.2 270.45,-174.2"/>
</g>
<!-- RAL_C -->
<g id="node8" class="node">
<title>RAL_C</title>
<path fill="white" stroke="#555555" d="M447,-161.5C447,-161.5 357,-161.5 357,-161.5 351,-161.5 345,-155.5 345,-149.5 345,-149.5 345,-134.5 345,-134.5 345,-128.5 351,-122.5 357,-122.5 357,-122.5 447,-122.5 447,-122.5 453,-122.5 459,-128.5 459,-134.5 459,-134.5 459,-149.5 459,-149.5 459,-155.5 453,-161.5 447,-161.5"/>
<text text-anchor="start" x="359" y="-150.5" font-family="Helvetica,sans-Serif" font-size="10.00">[AXI bridges × 10</text>
<text text-anchor="start" x="351" y="-139.5" font-family="Helvetica,sans-Serif" font-size="10.00">Register blocks × 10</text>
<text text-anchor="start" x="362.5" y="-128.5" font-family="Helvetica,sans-Serif" font-size="10.00">sync_pulse × 6]</text>
</g>
<!-- RAL&#45;&gt;RAL_C -->
<g id="edge6" class="edge">
<title>RAL&#45;&gt;RAL_C</title>
<path fill="none" stroke="#666666" d="M402,-208.16C402,-208.16 402,-168.77 402,-168.77"/>
<polygon fill="#666666" stroke="#666666" points="404.45,-168.77 402,-161.77 399.55,-168.77 404.45,-168.77"/>
</g>
<!-- CPRI0 -->
<g id="node10" class="node">
<title>CPRI0</title>
<path fill="white" stroke="#555555" d="M596,-160C596,-160 496,-160 496,-160 490,-160 484,-154 484,-148 484,-148 484,-136 484,-136 484,-130 490,-124 496,-124 496,-124 596,-124 596,-124 602,-124 608,-130 608,-136 608,-136 608,-148 608,-148 608,-154 602,-160 596,-160"/>
<text text-anchor="start" x="490" y="-145" font-family="Helvetica,sans-Serif" font-size="10.00">bbu_cpri_fe_top_inst_0</text>
<text text-anchor="start" x="530" y="-134" font-family="Helvetica,sans-Serif" font-size="10.00">(SFP0)</text>
</g>
<!-- CPRI_T&#45;&gt;CPRI0 -->
<g id="edge7" class="edge">
<title>CPRI_T&#45;&gt;CPRI0</title>
<path fill="none" stroke="#666666" d="M649.89,-226C606.04,-226 546,-226 546,-226 546,-226 546,-167.23 546,-167.23"/>
<polygon fill="#666666" stroke="#666666" points="548.45,-167.23 546,-160.23 543.55,-167.23 548.45,-167.23"/>
</g>
<!-- CPRI1 -->
<g id="node11" class="node">
<title>CPRI1</title>
<path fill="white" stroke="#555555" d="M745,-160C745,-160 645,-160 645,-160 639,-160 633,-154 633,-148 633,-148 633,-136 633,-136 633,-130 639,-124 645,-124 645,-124 745,-124 745,-124 751,-124 757,-130 757,-136 757,-136 757,-148 757,-148 757,-154 751,-160 745,-160"/>
<text text-anchor="start" x="639" y="-145" font-family="Helvetica,sans-Serif" font-size="10.00">bbu_cpri_fe_top_inst_1</text>
<text text-anchor="start" x="679" y="-134" font-family="Helvetica,sans-Serif" font-size="10.00">(SFP1)</text>
</g>
<!-- CPRI_T&#45;&gt;CPRI1 -->
<g id="edge8" class="edge">
<title>CPRI_T&#45;&gt;CPRI1</title>
<path fill="none" stroke="#666666" d="M695,-208.16C695,-208.16 695,-167.01 695,-167.01"/>
<polygon fill="#666666" stroke="#666666" points="697.45,-167.01 695,-160.01 692.55,-167.01 697.45,-167.01"/>
</g>
<!-- CPRI_C -->
<g id="node12" class="node">
<title>CPRI_C</title>
<path fill="white" stroke="#555555" d="M701,-77C701,-77 539,-77 539,-77 533,-77 527,-71 527,-65 527,-65 527,-28 527,-28 527,-22 533,-16 539,-16 539,-16 701,-16 701,-16 707,-16 713,-22 713,-28 713,-28 713,-65 713,-65 713,-71 707,-77 701,-77"/>
<text text-anchor="start" x="540" y="-66" font-family="Helvetica,sans-Serif" font-size="10.00">[cpri_slave_0_9_83 · eth_clk_wiz</text>
<text text-anchor="start" x="569.5" y="-55" font-family="Helvetica,sans-Serif" font-size="10.00">bbu_cpri_framer_top</text>
<text text-anchor="start" x="563.5" y="-44" font-family="Helvetica,sans-Serif" font-size="10.00">bbu_cpri_deframer_top</text>
<text text-anchor="start" x="533" y="-33" font-family="Helvetica,sans-Serif" font-size="10.00">mu_law_encode/decode · hdlc_stim</text>
<text text-anchor="start" x="571" y="-22" font-family="Helvetica,sans-Serif" font-size="10.00">CDC double buffers]</text>
</g>
<!-- CPRI0&#45;&gt;CPRI_C -->
<g id="edge9" class="edge">
<title>CPRI0&#45;&gt;CPRI_C</title>
<path fill="none" stroke="#666666" d="M567.5,-123.59C567.5,-123.59 567.5,-84.26 567.5,-84.26"/>
<polygon fill="#666666" stroke="#666666" points="569.95,-84.26 567.5,-77.26 565.05,-84.26 569.95,-84.26"/>
</g>
<!-- CPRI1&#45;&gt;CPRI_C -->
<g id="edge10" class="edge">
<title>CPRI1&#45;&gt;CPRI_C</title>
<path fill="none" stroke="#666666" d="M673,-123.59C673,-123.59 673,-84.26 673,-84.26"/>
<polygon fill="#666666" stroke="#666666" points="675.45,-84.26 673,-77.26 670.55,-84.26 675.45,-84.26"/>
</g>
<!-- BBU_RF_C -->
<g id="node14" class="node">
<title>BBU_RF_C</title>
<path fill="white" stroke="#555555" d="M931.5,-167C931.5,-167 794.5,-167 794.5,-167 788.5,-167 782.5,-161 782.5,-155 782.5,-155 782.5,-129 782.5,-129 782.5,-123 788.5,-117 794.5,-117 794.5,-117 931.5,-117 931.5,-117 937.5,-117 943.5,-123 943.5,-129 943.5,-129 943.5,-155 943.5,-155 943.5,-161 937.5,-167 931.5,-167"/>
<text text-anchor="start" x="813" y="-156" font-family="Helvetica,sans-Serif" font-size="10.00">[dl_bbumc_rf_cs × 2</text>
<text text-anchor="start" x="814.5" y="-145" font-family="Helvetica,sans-Serif" font-size="10.00">ul_bbumc_rf_ca × 2</text>
<text text-anchor="start" x="788.5" y="-134" font-family="Helvetica,sans-Serif" font-size="10.00">cw_gen · power_estimator × 2</text>
<text text-anchor="start" x="823.5" y="-123" font-family="Helvetica,sans-Serif" font-size="10.00">sync_pulse × 6]</text>
</g>
<!-- BBU_RF&#45;&gt;BBU_RF_C -->
<g id="edge11" class="edge">
<title>BBU_RF&#45;&gt;BBU_RF_C</title>
<path fill="none" stroke="#666666" d="M884,-208.16C884,-208.16 884,-174.03 884,-174.03"/>
<polygon fill="#666666" stroke="#666666" points="886.45,-174.03 884,-167.03 881.55,-174.03 886.45,-174.03"/>
</g>
<!-- EST -->
<g id="node16" class="node">
<title>EST</title>
<path fill="white" stroke="#555555" d="M1063.5,-160C1063.5,-160 980.5,-160 980.5,-160 974.5,-160 968.5,-154 968.5,-148 968.5,-148 968.5,-136 968.5,-136 968.5,-130 974.5,-124 980.5,-124 980.5,-124 1063.5,-124 1063.5,-124 1069.5,-124 1075.5,-130 1075.5,-136 1075.5,-136 1075.5,-148 1075.5,-148 1075.5,-154 1069.5,-160 1063.5,-160"/>
<text text-anchor="middle" x="1022" y="-139.5" font-family="Helvetica,sans-Serif" font-size="10.00">Est_foffset_clkchng</text>
</g>
<!-- MNC&#45;&gt;EST -->
<g id="edge12" class="edge">
<title>MNC&#45;&gt;EST</title>
<path fill="none" stroke="#666666" d="M1065.75,-208.16C1065.75,-208.16 1065.75,-167.01 1065.75,-167.01"/>
<polygon fill="#666666" stroke="#666666" points="1068.2,-167.01 1065.75,-160.01 1063.3,-167.01 1068.2,-167.01"/>
</g>
<!-- MNC_T -->
<g id="node17" class="node">
<title>MNC_T</title>
<path fill="white" stroke="#555555" d="M1143.5,-160C1143.5,-160 1112.5,-160 1112.5,-160 1106.5,-160 1100.5,-154 1100.5,-148 1100.5,-148 1100.5,-136 1100.5,-136 1100.5,-130 1106.5,-124 1112.5,-124 1112.5,-124 1143.5,-124 1143.5,-124 1149.5,-124 1155.5,-130 1155.5,-136 1155.5,-136 1155.5,-148 1155.5,-148 1155.5,-154 1149.5,-160 1143.5,-160"/>
<text text-anchor="middle" x="1128" y="-139.5" font-family="Helvetica,sans-Serif" font-size="10.00">mnc_top</text>
</g>
<!-- MNC&#45;&gt;MNC_T -->
<g id="edge13" class="edge">
<title>MNC&#45;&gt;MNC_T</title>
<path fill="none" stroke="#666666" d="M1127.25,-208.16C1127.25,-208.16 1127.25,-167.01 1127.25,-167.01"/>
<polygon fill="#666666" stroke="#666666" points="1129.7,-167.01 1127.25,-160.01 1124.8,-167.01 1129.7,-167.01"/>
</g>
<!-- DL_SUB -->
<g id="node23" class="node">
<title>DL_SUB</title>
<path fill="white" stroke="#555555" d="M1750,-167C1750,-167 1636,-167 1636,-167 1630,-167 1624,-161 1624,-155 1624,-155 1624,-129 1624,-129 1624,-123 1630,-117 1636,-117 1636,-117 1750,-117 1750,-117 1756,-117 1762,-123 1762,-129 1762,-129 1762,-155 1762,-155 1762,-161 1756,-167 1750,-167"/>
<text text-anchor="start" x="1630" y="-156" font-family="Helvetica,sans-Serif" font-size="10.00">dl_doppler_compensation</text>
<text text-anchor="start" x="1638" y="-145" font-family="Helvetica,sans-Serif" font-size="10.00">dl_gain_compensation</text>
<text text-anchor="start" x="1674.5" y="-134" font-family="Helvetica,sans-Serif" font-size="10.00">dl_map</text>
<text text-anchor="start" x="1649" y="-123" font-family="Helvetica,sans-Serif" font-size="10.00">dl_mnc_dcgc_corr</text>
</g>
<!-- DL_DCGC&#45;&gt;DL_SUB -->
<g id="edge14" class="edge">
<title>DL_DCGC&#45;&gt;DL_SUB</title>
<path fill="none" stroke="#666666" d="M1693,-208.16C1693,-208.16 1693,-174.03 1693,-174.03"/>
<polygon fill="#666666" stroke="#666666" points="1695.45,-174.03 1693,-167.03 1690.55,-174.03 1695.45,-174.03"/>
</g>
<!-- NCO_C -->
<g id="node25" class="node">
<title>NCO_C</title>
<path fill="white" stroke="#555555" d="M1577.5,-160C1577.5,-160 1496.5,-160 1496.5,-160 1490.5,-160 1484.5,-154 1484.5,-148 1484.5,-148 1484.5,-136 1484.5,-136 1484.5,-130 1490.5,-124 1496.5,-124 1496.5,-124 1577.5,-124 1577.5,-124 1583.5,-124 1589.5,-130 1589.5,-136 1589.5,-136 1589.5,-148 1589.5,-148 1589.5,-154 1583.5,-160 1577.5,-160"/>
<text text-anchor="start" x="1490.5" y="-145" font-family="Helvetica,sans-Serif" font-size="10.00">Freq_Shift_corr × 2</text>
<text text-anchor="start" x="1503.5" y="-134" font-family="Helvetica,sans-Serif" font-size="10.00">dcrfo_corr_lpf</text>
</g>
<!-- NCO&#45;&gt;NCO_C -->
<g id="edge15" class="edge">
<title>NCO&#45;&gt;NCO_C</title>
<path fill="none" stroke="#666666" d="M1537,-208.16C1537,-208.16 1537,-167.01 1537,-167.01"/>
<polygon fill="#666666" stroke="#666666" points="1539.45,-167.01 1537,-160.01 1534.55,-167.01 1539.45,-167.01"/>
</g>
<!-- UL_SUB -->
<g id="node30" class="node">
<title>UL_SUB</title>
<path fill="white" stroke="#555555" d="M2580,-167C2580,-167 2466,-167 2466,-167 2460,-167 2454,-161 2454,-155 2454,-155 2454,-129 2454,-129 2454,-123 2460,-117 2466,-117 2466,-117 2580,-117 2580,-117 2586,-117 2592,-123 2592,-129 2592,-129 2592,-155 2592,-155 2592,-161 2586,-167 2580,-167"/>
<text text-anchor="start" x="2504.5" y="-156" font-family="Helvetica,sans-Serif" font-size="10.00">ul_map</text>
<text text-anchor="start" x="2468" y="-145" font-family="Helvetica,sans-Serif" font-size="10.00">ul_gain_compensation</text>
<text text-anchor="start" x="2460" y="-134" font-family="Helvetica,sans-Serif" font-size="10.00">ul_doppler_compensation</text>
<text text-anchor="start" x="2479" y="-123" font-family="Helvetica,sans-Serif" font-size="10.00">ul_mnc_dcgc_corr</text>
</g>
<!-- UL_DCGC&#45;&gt;UL_SUB -->
<g id="edge16" class="edge">
<title>UL_DCGC&#45;&gt;UL_SUB</title>
<path fill="none" stroke="#666666" d="M2523,-208.16C2523,-208.16 2523,-174.03 2523,-174.03"/>
<polygon fill="#666666" stroke="#666666" points="2525.45,-174.03 2523,-167.03 2520.55,-174.03 2525.45,-174.03"/>
</g>
<!-- DMX_MX -->
<g id="node34" class="node">
<title>DMX_MX</title>
<path fill="white" stroke="#555555" d="M2804,-160C2804,-160 2734,-160 2734,-160 2728,-160 2722,-154 2722,-148 2722,-148 2722,-136 2722,-136 2722,-130 2728,-124 2734,-124 2734,-124 2804,-124 2804,-124 2810,-124 2816,-130 2816,-136 2816,-136 2816,-148 2816,-148 2816,-154 2810,-160 2804,-160"/>
<text text-anchor="middle" x="2769" y="-139.5" font-family="Helvetica,sans-Serif" font-size="10.00">demux_mux_top</text>
</g>
<!-- BC_BDC&#45;&gt;DMX_MX -->
<g id="edge17" class="edge">
<title>BC_BDC&#45;&gt;DMX_MX</title>
<path fill="none" stroke="#666666" d="M2752.25,-208.16C2752.25,-208.16 2752.25,-167.01 2752.25,-167.01"/>
<polygon fill="#666666" stroke="#666666" points="2754.7,-167.01 2752.25,-160.01 2749.8,-167.01 2754.7,-167.01"/>
</g>
<!-- BC_C -->
<g id="node35" class="node">
<title>BC_C</title>
<path fill="white" stroke="#555555" d="M2847.5,-71.5C2847.5,-71.5 2720.5,-71.5 2720.5,-71.5 2714.5,-71.5 2708.5,-65.5 2708.5,-59.5 2708.5,-59.5 2708.5,-33.5 2708.5,-33.5 2708.5,-27.5 2714.5,-21.5 2720.5,-21.5 2720.5,-21.5 2847.5,-21.5 2847.5,-21.5 2853.5,-21.5 2859.5,-27.5 2859.5,-33.5 2859.5,-33.5 2859.5,-59.5 2859.5,-59.5 2859.5,-65.5 2853.5,-71.5 2847.5,-71.5"/>
<text text-anchor="start" x="2756.5" y="-60.5" font-family="Helvetica,sans-Serif" font-size="10.00">demux_top</text>
<text text-anchor="start" x="2714.5" y="-49.5" font-family="Helvetica,sans-Serif" font-size="10.00">bdc48_beam_native_to_axis</text>
<text text-anchor="start" x="2717.5" y="-38.5" font-family="Helvetica,sans-Serif" font-size="10.00">bc48_beam_axis_to_native</text>
<text text-anchor="start" x="2762.5" y="-27.5" font-family="Helvetica,sans-Serif" font-size="10.00">mux_top</text>
</g>
<!-- DMX_MX&#45;&gt;BC_C -->
<g id="edge18" class="edge">
<title>DMX_MX&#45;&gt;BC_C</title>
<path fill="none" stroke="#666666" d="M2769,-123.59C2769,-123.59 2769,-78.72 2769,-78.72"/>
<polygon fill="#666666" stroke="#666666" points="2771.45,-78.72 2769,-71.72 2766.55,-78.72 2771.45,-78.72"/>
</g>
<!-- BD2W -->
<g id="node37" class="node">
<title>BD2W</title>
<path fill="white" stroke="#555555" d="M3013.5,-160C3013.5,-160 2936.5,-160 2936.5,-160 2930.5,-160 2924.5,-154 2924.5,-148 2924.5,-148 2924.5,-136 2924.5,-136 2924.5,-130 2930.5,-124 2936.5,-124 2936.5,-124 3013.5,-124 3013.5,-124 3019.5,-124 3025.5,-130 3025.5,-136 3025.5,-136 3025.5,-148 3025.5,-148 3025.5,-154 3019.5,-160 3013.5,-160"/>
<text text-anchor="middle" x="2975" y="-139.5" font-family="Helvetica,sans-Serif" font-size="10.00">design_2_wrapper</text>
</g>
<!-- DDR_P&#45;&gt;BD2W -->
<g id="edge19" class="edge">
<title>DDR_P&#45;&gt;BD2W</title>
<path fill="none" stroke="#666666" d="M2974.75,-208.16C2974.75,-208.16 2974.75,-167.01 2974.75,-167.01"/>
<polygon fill="#666666" stroke="#666666" points="2977.2,-167.01 2974.75,-160.01 2972.3,-167.01 2977.2,-167.01"/>
</g>
<!-- BD2 -->
<g id="node38" class="node">
<title>BD2</title>
<path fill="white" stroke="#555555" d="M3049,-64.5C3049,-64.5 2913,-64.5 2913,-64.5 2907,-64.5 2901,-58.5 2901,-52.5 2901,-52.5 2901,-40.5 2901,-40.5 2901,-34.5 2907,-28.5 2913,-28.5 2913,-28.5 3049,-28.5 3049,-28.5 3055,-28.5 3061,-34.5 3061,-40.5 3061,-40.5 3061,-52.5 3061,-52.5 3061,-58.5 3055,-64.5 3049,-64.5"/>
<text text-anchor="start" x="2959" y="-54.5" font-family="Helvetica,sans-Serif" font-style="italic" font-size="10.00">design_2</text>
<text text-anchor="start" x="2907" y="-44.5" font-family="Helvetica,sans-Serif" font-size="10.00">[DDR4 MIG · AXI interconnect]</text>
<text text-anchor="start" x="2928" y="-34.5" font-family="Helvetica,sans-Serif" font-size="10.00">(Vivado block design)</text>
</g>
<!-- BD2W&#45;&gt;BD2 -->
<g id="edge20" class="edge">
<title>BD2W&#45;&gt;BD2</title>
<path fill="none" stroke="#666666" d="M2975,-123.59C2975,-123.59 2975,-71.53 2975,-71.53"/>
<polygon fill="#666666" stroke="#666666" points="2977.45,-71.53 2975,-64.53 2972.55,-71.53 2977.45,-71.53"/>
</g>
<!-- RATE -->
<g id="node40" class="node">
<title>RATE</title>
<path fill="white" stroke="#555555" d="M3367.5,-160C3367.5,-160 3258.5,-160 3258.5,-160 3252.5,-160 3246.5,-154 3246.5,-148 3246.5,-148 3246.5,-136 3246.5,-136 3246.5,-130 3252.5,-124 3258.5,-124 3258.5,-124 3367.5,-124 3367.5,-124 3373.5,-124 3379.5,-130 3379.5,-136 3379.5,-136 3379.5,-148 3379.5,-148 3379.5,-154 3373.5,-160 3367.5,-160"/>
<text text-anchor="middle" x="3313" y="-139.5" font-family="Helvetica,sans-Serif" font-size="10.00">Beam_Rate_Counter × 8</text>
</g>
<!-- SRC_MON&#45;&gt;RATE -->
<g id="edge21" class="edge">
<title>SRC_MON&#45;&gt;RATE</title>
<path fill="none" stroke="#666666" d="M3329.75,-208.16C3329.75,-208.16 3329.75,-167.01 3329.75,-167.01"/>
<polygon fill="#666666" stroke="#666666" points="3332.2,-167.01 3329.75,-160.01 3327.3,-167.01 3332.2,-167.01"/>
</g>
<!-- SNIFF -->
<g id="node43" class="node">
<title>SNIFF</title>
<path fill="white" stroke="#555555" d="M3469,-160C3469,-160 3417,-160 3417,-160 3411,-160 3405,-154 3405,-148 3405,-148 3405,-136 3405,-136 3405,-130 3411,-124 3417,-124 3417,-124 3469,-124 3469,-124 3475,-124 3481,-130 3481,-136 3481,-136 3481,-148 3481,-148 3481,-154 3475,-160 3469,-160"/>
<text text-anchor="middle" x="3443" y="-139.5" font-family="Helvetica,sans-Serif" font-size="10.00">bpms_sniffer</text>
</g>
<!-- CAP&#45;&gt;SNIFF -->
<g id="edge22" class="edge">
<title>CAP&#45;&gt;SNIFF</title>
<path fill="none" stroke="#666666" d="M3443.25,-208.16C3443.25,-208.16 3443.25,-167.01 3443.25,-167.01"/>
<polygon fill="#666666" stroke="#666666" points="3445.7,-167.01 3443.25,-160.01 3440.8,-167.01 3445.7,-167.01"/>
</g>
<!-- DBG_TOP -->
<g id="node44" class="node">
<title>DBG_TOP</title>
<path fill="white" stroke="#555555" d="M3591.5,-160C3591.5,-160 3518.5,-160 3518.5,-160 3512.5,-160 3506.5,-154 3506.5,-148 3506.5,-148 3506.5,-136 3506.5,-136 3506.5,-130 3512.5,-124 3518.5,-124 3518.5,-124 3591.5,-124 3591.5,-124 3597.5,-124 3603.5,-130 3603.5,-136 3603.5,-136 3603.5,-148 3603.5,-148 3603.5,-154 3597.5,-160 3591.5,-160"/>
<text text-anchor="middle" x="3555" y="-139.5" font-family="Helvetica,sans-Serif" font-size="10.00">dbg_recorder_top</text>
</g>
<!-- CAP&#45;&gt;DBG_TOP -->
<g id="edge23" class="edge">
<title>CAP&#45;&gt;DBG_TOP</title>
<path fill="none" stroke="#666666" d="M3493.75,-208.16C3493.75,-183.31 3493.75,-142 3493.75,-142 3493.75,-142 3499.44,-142 3499.44,-142"/>
<polygon fill="#666666" stroke="#666666" points="3499.44,-144.45 3506.44,-142 3499.44,-139.55 3499.44,-144.45"/>
</g>
<!-- DBG_C -->
<g id="node45" class="node">
<title>DBG_C</title>
<path fill="white" stroke="#555555" d="M3590.5,-64.5C3590.5,-64.5 3475.5,-64.5 3475.5,-64.5 3469.5,-64.5 3463.5,-58.5 3463.5,-52.5 3463.5,-52.5 3463.5,-40.5 3463.5,-40.5 3463.5,-34.5 3469.5,-28.5 3475.5,-28.5 3475.5,-28.5 3590.5,-28.5 3590.5,-28.5 3596.5,-28.5 3602.5,-34.5 3602.5,-40.5 3602.5,-40.5 3602.5,-52.5 3602.5,-52.5 3602.5,-58.5 3596.5,-64.5 3590.5,-64.5"/>
<text text-anchor="start" x="3469.5" y="-49.5" font-family="Helvetica,sans-Serif" font-size="10.00">dbg_recorder_capture_ctrl</text>
<text text-anchor="start" x="3475.5" y="-38.5" font-family="Helvetica,sans-Serif" font-size="10.00">dbg_recorder_burst_ctrl</text>
</g>
<!-- DBG_TOP&#45;&gt;DBG_C -->
<g id="edge24" class="edge">
<title>DBG_TOP&#45;&gt;DBG_C</title>
<path fill="none" stroke="#666666" d="M3554.5,-123.59C3554.5,-123.59 3554.5,-71.53 3554.5,-71.53"/>
<polygon fill="#666666" stroke="#666666" points="3556.95,-71.53 3554.5,-64.53 3552.05,-71.53 3556.95,-71.53"/>
</g>
</g>
</svg>
